<svg width="420" height="420" viewBox="0 0 420 420" fill="none" xmlns="http://www.w3.org/2000/svg">
<rect width="420" height="420" rx="40" fill="#11151D"/>
<circle cx="210" cy="185" r="110" fill="#6B5B5B"/>
<path d="M125 120l-22-70 72 42M293 92l72-42-22 72" fill="#6B5B5B"/>
<path d="M138 122l-12-40 42 24M282 106l42-24-12 40" fill="#F4A7B9" opacity=".55"/>
<circle cx="170" cy="170" r="20" fill="#FFD166"/><circle cx="250" cy="170" r="20" fill="#FFD166"/>
<circle cx="176" cy="166" r="9" fill="#11151D"/><circle cx="256" cy="166" r="9" fill="#11151D"/>
<path d="M198 200c7 8 17 8 24 0" stroke="#F8E9E9" stroke-width="6" stroke-linecap="round"/>
<path d="M155 225c32 24 78 24 110 0" stroke="#F8E9E9" stroke-width="8" stroke-linecap="round"/>
<rect x="105" y="265" width="210" height="85" rx="14" fill="#2B2D3A" stroke="#F4A7B9" stroke-width="4"/>
<circle cx="210" cy="307" r="16" fill="#F4A7B9"/>
<text x="84" y="385" fill="#F4A7B9" font-family="Verdana" font-size="22">cat-powered coding</text>
</svg>