<svg width="260" height="150" viewBox="0 0 260 150" fill="none" xmlns="http://www.w3.org/2000/svg">
<ellipse cx="130" cy="115" rx="90" ry="22" fill="#F4A7B9" opacity=".45"/>
<path d="M70 95c5-36 30-56 68-56 41 0 69 22 72 57 2 24-28 36-72 36-43 0-72-12-68-37z" fill="#6B5B5B"/>
<path d="M87 58l-7-30 30 18M178 47l30-18-8 31" fill="#6B5B5B"/>
<path d="M93 58l-5-18 17 11M184 53l18-11-5 19" fill="#F4A7B9" opacity=".55"/>
<path d="M105 101c18 10 49 10 67 0" stroke="#F8E9E9" stroke-width="5" stroke-linecap="round"/>
<path d="M118 80c10 8 27 8 38 0" stroke="#1F2328" stroke-width="4" stroke-linecap="round"/>
<circle cx="100" cy="76" r="4" fill="#1F2328"/><circle cx="176" cy="76" r="4" fill="#1F2328"/>
<path d="M130 91c4 3 9 3 13 0" stroke="#F8E9E9" stroke-width="3" stroke-linecap="round"/>
<path d="M65 86c-25 5-41 0-52-14" stroke="#6B5B5B" stroke-width="10" stroke-linecap="round"/>
<text x="197" y="34" fill="#F4A7B9" font-family="Verdana" font-size="18">z</text>
<text x="216" y="22" fill="#FFD7E1" font-family="Verdana" font-size="15">z</text>
<text x="232" y="12" fill="#F4A7B9" font-family="Verdana" font-size="12">z</text>
</svg>